{
  "title" : "",
  "description" : "",
  "author" : "",
  "width" : 1364.0,
  "height" : 768.0,
  "version" : "0.5",
  "editRate" : 30,
  "authoringClientName" :  {
    "name" : "Camtasia Studio",
    "platform" : "Windows",
    "version" : "9.0"
  },
  "sourceBin" : [
    {
      "id" : 1,
      "src" : "C:\\Users\\truon\\Documents\\Camtasia Studio\\Rec 01-11-22 14.trec",
      "rect" : [0, 0, 1364, 768],
      "lastMod" : "20220111T041526",
      "sourceTracks" : [
        {
          "range" : [0, 33560],
          "type" : 0,
          "editRate" : 30,
          "trackRect" : [0, 0, 1364, 768],
          "sampleRate" : 26,
          "bitDepth" : 0,
          "numChannels" : 0,
          "metaData" : "Rec 01-11-22 14.trec;"
        },
        {
          "range" : [0, 49327104],
          "type" : 2,
          "editRate" : 44100,
          "trackRect" : [0, 0, 0, 0],
          "sampleRate" : 44100,
          "bitDepth" : 16,
          "numChannels" : 2,
          "metaData" : ""
        },
        {
          "range" : [0, 49338368],
          "type" : 2,
          "editRate" : 44100,
          "trackRect" : [0, 0, 0, 0],
          "sampleRate" : 44100,
          "bitDepth" : 16,
          "numChannels" : 2,
          "metaData" : ""
        }
      ]
    },
    {
      "id" : 2,
      "src" : "C:\\Users\\truon\\Documents\\Camtasia Studio\\Rec 01-11-22 15.trec",
      "rect" : [0, 0, 1364, 768],
      "lastMod" : "20220111T065908",
      "sourceTracks" : [
        {
          "range" : [0, 8194],
          "type" : 0,
          "editRate" : 30,
          "trackRect" : [0, 0, 1364, 768],
          "sampleRate" : 27,
          "bitDepth" : 0,
          "numChannels" : 0,
          "metaData" : "Rec 01-11-22 15.trec;"
        },
        {
          "range" : [0, 12041216],
          "type" : 2,
          "editRate" : 44100,
          "trackRect" : [0, 0, 0, 0],
          "sampleRate" : 44100,
          "bitDepth" : 16,
          "numChannels" : 2,
          "metaData" : ""
        },
        {
          "range" : [0, 12044288],
          "type" : 2,
          "editRate" : 44100,
          "trackRect" : [0, 0, 0, 0],
          "sampleRate" : 44100,
          "bitDepth" : 16,
          "numChannels" : 2,
          "metaData" : ""
        }
      ]
    }
  ],
  "timeline" : {
    "id" : 3,
    "sceneTrack" : {
      "scenes" : [
        {
          "duration" : 871.066666666667,
          "title" : "",
          "type" : "",
          "csml" : {
            "tracks" : [
              {
                "trackIndex" : 0,
                "medias" : [
                  {
                    "id" : 4,
                    "_type" : "UnifiedMedia",
                    "video" : 
                        {
                          "id" : 5,
                          "_type" : "ScreenVMFile",
                          "src" : 1,
                          "trackNumber" : 0,
                          "attributes" : {
                            "ident" : "Rec 01-11-22 14"
                          },
                          "parameters" : {
                            "cursorScale" : {
                              "type" : "double",
                              "defaultValue" : 1.0,
                              "interp" : "linr"
                            },
                            "cursorOpacity" : {
                              "type" : "double",
                              "defaultValue" : 1.0,
                              "interp" : "linr"
                            }
                          },
                          "effects" : [

                          ],
                          "start" : 0,
                          "duration" : 560,
                          "mediaStart" : 33,
                          "mediaDuration" : 560,
                          "scalar" : 1,
                          "animationTracks" : {

                          }
                        },
                    "audio" : 
                        {
                          "id" : 6,
                          "_type" : "AMFile",
                          "src" : 1,
                          "trackNumber" : 2,
                          "attributes" : {
                            "ident" : "",
                            "sampleRate" : 44100,
                            "bitDepth" : 16,
                            "gain" : 1.0,
                            "mixToMono" : false
                          },
                            "channelNumber" : "0,1",
                          "effects" : [

                          ],
                          "start" : 0,
                          "duration" : 560,
                          "mediaStart" : 33,
                          "mediaDuration" : 560,
                          "scalar" : 1,
                          "animationTracks" : {

                          }
                        }
,
                    "start" : 0,
                    "duration" : 560,
                    "mediaStart" : 0,
                    "mediaDuration" : 33560,
                    "scalar" : 1,
                    "metadata" : {
                      "AutoAppliedSmartFocus" : "False",
                      "WinSubProjectDisplayName" : "",
                      "clipSpeedAttribute" : false
                    }
                  },
                  {
                    "id" : 7,
                    "_type" : "UnifiedMedia",
                    "video" : 
                        {
                          "id" : 8,
                          "_type" : "ScreenVMFile",
                          "src" : 1,
                          "trackNumber" : 0,
                          "attributes" : {
                            "ident" : "Rec 01-11-22 14"
                          },
                          "parameters" : {
                            "cursorScale" : {
                              "type" : "double",
                              "defaultValue" : 1.0,
                              "interp" : "linr"
                            },
                            "cursorOpacity" : {
                              "type" : "double",
                              "defaultValue" : 1.0,
                              "interp" : "linr"
                            }
                          },
                          "effects" : [

                          ],
                          "start" : 560,
                          "duration" : 725,
                          "mediaStart" : 690,
                          "mediaDuration" : 725,
                          "scalar" : 1,
                          "animationTracks" : {

                          }
                        },
                    "audio" : 
                        {
                          "id" : 9,
                          "_type" : "AMFile",
                          "src" : 1,
                          "trackNumber" : 2,
                          "attributes" : {
                            "ident" : "",
                            "sampleRate" : 44100,
                            "bitDepth" : 16,
                            "gain" : 1.0,
                            "mixToMono" : false
                          },
                            "channelNumber" : "0,1",
                          "effects" : [

                          ],
                          "start" : 560,
                          "duration" : 725,
                          "mediaStart" : 690,
                          "mediaDuration" : 725,
                          "scalar" : 1,
                          "animationTracks" : {

                          }
                        }
,
                    "start" : 560,
                    "duration" : 725,
                    "mediaStart" : 0,
                    "mediaDuration" : 33560,
                    "scalar" : 1,
                    "metadata" : {
                      "AutoAppliedSmartFocus" : "False",
                      "WinSubProjectDisplayName" : "",
                      "clipSpeedAttribute" : false
                    }
                  },
                  {
                    "id" : 10,
                    "_type" : "UnifiedMedia",
                    "video" : 
                        {
                          "id" : 11,
                          "_type" : "ScreenVMFile",
                          "src" : 1,
                          "trackNumber" : 0,
                          "attributes" : {
                            "ident" : "Rec 01-11-22 14"
                          },
                          "parameters" : {
                            "cursorScale" : {
                              "type" : "double",
                              "defaultValue" : 1.0,
                              "interp" : "linr"
                            },
                            "cursorOpacity" : {
                              "type" : "double",
                              "defaultValue" : 1.0,
                              "interp" : "linr"
                            }
                          },
                          "effects" : [

                          ],
                          "start" : 1285,
                          "duration" : 990,
                          "mediaStart" : 1434,
                          "mediaDuration" : 990,
                          "scalar" : 1,
                          "animationTracks" : {

                          }
                        },
                    "audio" : 
                        {
                          "id" : 12,
                          "_type" : "AMFile",
                          "src" : 1,
                          "trackNumber" : 2,
                          "attributes" : {
                            "ident" : "",
                            "sampleRate" : 44100,
                            "bitDepth" : 16,
                            "gain" : 1.0,
                            "mixToMono" : false
                          },
                            "channelNumber" : "0,1",
                          "effects" : [

                          ],
                          "start" : 1285,
                          "duration" : 990,
                          "mediaStart" : 1434,
                          "mediaDuration" : 990,
                          "scalar" : 1,
                          "animationTracks" : {

                          }
                        }
,
                    "start" : 1285,
                    "duration" : 990,
                    "mediaStart" : 0,
                    "mediaDuration" : 33560,
                    "scalar" : 1,
                    "metadata" : {
                      "AutoAppliedSmartFocus" : "False",
                      "WinSubProjectDisplayName" : "",
                      "clipSpeedAttribute" : false
                    }
                  },
                  {
                    "id" : 13,
                    "_type" : "UnifiedMedia",
                    "video" : 
                        {
                          "id" : 14,
                          "_type" : "ScreenVMFile",
                          "src" : 1,
                          "trackNumber" : 0,
                          "attributes" : {
                            "ident" : "Rec 01-11-22 14"
                          },
                          "parameters" : {
                            "cursorScale" : {
                              "type" : "double",
                              "defaultValue" : 1.0,
                              "interp" : "linr"
                            },
                            "cursorOpacity" : {
                              "type" : "double",
                              "defaultValue" : 1.0,
                              "interp" : "linr"
                            }
                          },
                          "effects" : [

                          ],
                          "start" : 2275,
                          "duration" : 206,
                          "mediaStart" : 2468,
                          "mediaDuration" : 206,
                          "scalar" : 1,
                          "animationTracks" : {

                          }
                        },
                    "audio" : 
                        {
                          "id" : 15,
                          "_type" : "AMFile",
                          "src" : 1,
                          "trackNumber" : 2,
                          "attributes" : {
                            "ident" : "",
                            "sampleRate" : 44100,
                            "bitDepth" : 16,
                            "gain" : 1.0,
                            "mixToMono" : false
                          },
                            "channelNumber" : "0,1",
                          "effects" : [

                          ],
                          "start" : 2275,
                          "duration" : 206,
                          "mediaStart" : 2468,
                          "mediaDuration" : 206,
                          "scalar" : 1,
                          "animationTracks" : {

                          }
                        }
,
                    "start" : 2275,
                    "duration" : 206,
                    "mediaStart" : 0,
                    "mediaDuration" : 33560,
                    "scalar" : 1,
                    "metadata" : {
                      "AutoAppliedSmartFocus" : "False",
                      "WinSubProjectDisplayName" : "",
                      "clipSpeedAttribute" : false
                    }
                  },
                  {
                    "id" : 16,
                    "_type" : "UnifiedMedia",
                    "video" : 
                        {
                          "id" : 17,
                          "_type" : "ScreenVMFile",
                          "src" : 1,
                          "trackNumber" : 0,
                          "attributes" : {
                            "ident" : "Rec 01-11-22 14"
                          },
                          "parameters" : {
                            "cursorScale" : {
                              "type" : "double",
                              "defaultValue" : 1.0,
                              "interp" : "linr"
                            },
                            "cursorOpacity" : {
                              "type" : "double",
                              "defaultValue" : 1.0,
                              "interp" : "linr"
                            }
                          },
                          "effects" : [

                          ],
                          "start" : 2481,
                          "duration" : 376,
                          "mediaStart" : 3029,
                          "mediaDuration" : 376,
                          "scalar" : 1,
                          "animationTracks" : {

                          }
                        },
                    "audio" : 
                        {
                          "id" : 18,
                          "_type" : "AMFile",
                          "src" : 1,
                          "trackNumber" : 2,
                          "attributes" : {
                            "ident" : "",
                            "sampleRate" : 44100,
                            "bitDepth" : 16,
                            "gain" : 1.0,
                            "mixToMono" : false
                          },
                            "channelNumber" : "0,1",
                          "effects" : [

                          ],
                          "start" : 2481,
                          "duration" : 376,
                          "mediaStart" : 3029,
                          "mediaDuration" : 376,
                          "scalar" : 1,
                          "animationTracks" : {

                          }
                        }
,
                    "start" : 2481,
                    "duration" : 376,
                    "mediaStart" : 0,
                    "mediaDuration" : 33560,
                    "scalar" : 1,
                    "metadata" : {
                      "AutoAppliedSmartFocus" : "False",
                      "WinSubProjectDisplayName" : "",
                      "clipSpeedAttribute" : false
                    }
                  },
                  {
                    "id" : 19,
                    "_type" : "UnifiedMedia",
                    "video" : 
                        {
                          "id" : 20,
                          "_type" : "ScreenVMFile",
                          "src" : 1,
                          "trackNumber" : 0,
                          "attributes" : {
                            "ident" : "Rec 01-11-22 14"
                          },
                          "parameters" : {
                            "cursorScale" : {
                              "type" : "double",
                              "defaultValue" : 1.0,
                              "interp" : "linr"
                            },
                            "cursorOpacity" : {
                              "type" : "double",
                              "defaultValue" : 1.0,
                              "interp" : "linr"
                            }
                          },
                          "effects" : [

                          ],
                          "start" : 2857,
                          "duration" : 806,
                          "mediaStart" : 3909,
                          "mediaDuration" : 806,
                          "scalar" : 1,
                          "animationTracks" : {

                          }
                        },
                    "audio" : 
                        {
                          "id" : 21,
                          "_type" : "AMFile",
                          "src" : 1,
                          "trackNumber" : 2,
                          "attributes" : {
                            "ident" : "",
                            "sampleRate" : 44100,
                            "bitDepth" : 16,
                            "gain" : 1.0,
                            "mixToMono" : false
                          },
                            "channelNumber" : "0,1",
                          "effects" : [

                          ],
                          "start" : 2857,
                          "duration" : 806,
                          "mediaStart" : 3909,
                          "mediaDuration" : 806,
                          "scalar" : 1,
                          "animationTracks" : {

                          }
                        }
,
                    "start" : 2857,
                    "duration" : 806,
                    "mediaStart" : 0,
                    "mediaDuration" : 33560,
                    "scalar" : 1,
                    "metadata" : {
                      "AutoAppliedSmartFocus" : "False",
                      "WinSubProjectDisplayName" : "",
                      "clipSpeedAttribute" : false
                    }
                  },
                  {
                    "id" : 22,
                    "_type" : "UnifiedMedia",
                    "video" : 
                        {
                          "id" : 23,
                          "_type" : "ScreenVMFile",
                          "src" : 1,
                          "trackNumber" : 0,
                          "attributes" : {
                            "ident" : "Rec 01-11-22 14"
                          },
                          "parameters" : {
                            "cursorScale" : {
                              "type" : "double",
                              "defaultValue" : 1.0,
                              "interp" : "linr"
                            },
                            "cursorOpacity" : {
                              "type" : "double",
                              "defaultValue" : 1.0,
                              "interp" : "linr"
                            }
                          },
                          "effects" : [

                          ],
                          "start" : 3663,
                          "duration" : 5034,
                          "mediaStart" : 4833,
                          "mediaDuration" : 5034,
                          "scalar" : 1,
                          "animationTracks" : {

                          }
                        },
                    "audio" : 
                        {
                          "id" : 24,
                          "_type" : "AMFile",
                          "src" : 1,
                          "trackNumber" : 2,
                          "attributes" : {
                            "ident" : "",
                            "sampleRate" : 44100,
                            "bitDepth" : 16,
                            "gain" : 1.0,
                            "mixToMono" : false
                          },
                            "channelNumber" : "0,1",
                          "effects" : [

                          ],
                          "start" : 3663,
                          "duration" : 5034,
                          "mediaStart" : 4833,
                          "mediaDuration" : 5034,
                          "scalar" : 1,
                          "animationTracks" : {

                          }
                        }
,
                    "start" : 3663,
                    "duration" : 5034,
                    "mediaStart" : 0,
                    "mediaDuration" : 33560,
                    "scalar" : 1,
                    "metadata" : {
                      "AutoAppliedSmartFocus" : "False",
                      "WinSubProjectDisplayName" : "",
                      "clipSpeedAttribute" : false
                    }
                  },
                  {
                    "id" : 25,
                    "_type" : "UnifiedMedia",
                    "video" : 
                        {
                          "id" : 26,
                          "_type" : "ScreenVMFile",
                          "src" : 1,
                          "trackNumber" : 0,
                          "attributes" : {
                            "ident" : "Rec 01-11-22 14"
                          },
                          "parameters" : {
                            "cursorScale" : {
                              "type" : "double",
                              "defaultValue" : 1.0,
                              "interp" : "linr"
                            },
                            "cursorOpacity" : {
                              "type" : "double",
                              "defaultValue" : 1.0,
                              "interp" : "linr"
                            }
                          },
                          "effects" : [

                          ],
                          "start" : 8697,
                          "duration" : 538,
                          "mediaStart" : 10307,
                          "mediaDuration" : 538,
                          "scalar" : 1,
                          "animationTracks" : {

                          }
                        },
                    "audio" : 
                        {
                          "id" : 27,
                          "_type" : "AMFile",
                          "src" : 1,
                          "trackNumber" : 2,
                          "attributes" : {
                            "ident" : "",
                            "sampleRate" : 44100,
                            "bitDepth" : 16,
                            "gain" : 1.0,
                            "mixToMono" : false
                          },
                            "channelNumber" : "0,1",
                          "effects" : [

                          ],
                          "start" : 8697,
                          "duration" : 538,
                          "mediaStart" : 10307,
                          "mediaDuration" : 538,
                          "scalar" : 1,
                          "animationTracks" : {

                          }
                        }
,
                    "start" : 8697,
                    "duration" : 538,
                    "mediaStart" : 0,
                    "mediaDuration" : 33560,
                    "scalar" : 1,
                    "metadata" : {
                      "AutoAppliedSmartFocus" : "False",
                      "WinSubProjectDisplayName" : "",
                      "clipSpeedAttribute" : false
                    }
                  },
                  {
                    "id" : 28,
                    "_type" : "UnifiedMedia",
                    "video" : 
                        {
                          "id" : 29,
                          "_type" : "ScreenVMFile",
                          "src" : 1,
                          "trackNumber" : 0,
                          "attributes" : {
                            "ident" : "Rec 01-11-22 14"
                          },
                          "parameters" : {
                            "cursorScale" : {
                              "type" : "double",
                              "defaultValue" : 1.0,
                              "interp" : "linr"
                            },
                            "cursorOpacity" : {
                              "type" : "double",
                              "defaultValue" : 1.0,
                              "interp" : "linr"
                            }
                          },
                          "effects" : [

                          ],
                          "start" : 9235,
                          "duration" : 195,
                          "mediaStart" : 10969,
                          "mediaDuration" : 195,
                          "scalar" : 1,
                          "animationTracks" : {

                          }
                        },
                    "audio" : 
                        {
                          "id" : 30,
                          "_type" : "AMFile",
                          "src" : 1,
                          "trackNumber" : 2,
                          "attributes" : {
                            "ident" : "",
                            "sampleRate" : 44100,
                            "bitDepth" : 16,
                            "gain" : 1.0,
                            "mixToMono" : false
                          },
                            "channelNumber" : "0,1",
                          "effects" : [

                          ],
                          "start" : 9235,
                          "duration" : 195,
                          "mediaStart" : 10969,
                          "mediaDuration" : 195,
                          "scalar" : 1,
                          "animationTracks" : {

                          }
                        }
,
                    "start" : 9235,
                    "duration" : 195,
                    "mediaStart" : 0,
                    "mediaDuration" : 33560,
                    "scalar" : 1,
                    "metadata" : {
                      "AutoAppliedSmartFocus" : "False",
                      "WinSubProjectDisplayName" : "",
                      "clipSpeedAttribute" : false
                    }
                  },
                  {
                    "id" : 31,
                    "_type" : "UnifiedMedia",
                    "video" : 
                        {
                          "id" : 32,
                          "_type" : "ScreenVMFile",
                          "src" : 1,
                          "trackNumber" : 0,
                          "attributes" : {
                            "ident" : "Rec 01-11-22 14"
                          },
                          "parameters" : {
                            "cursorScale" : {
                              "type" : "double",
                              "defaultValue" : 1.0,
                              "interp" : "linr"
                            },
                            "cursorOpacity" : {
                              "type" : "double",
                              "defaultValue" : 1.0,
                              "interp" : "linr"
                            }
                          },
                          "effects" : [

                          ],
                          "start" : 9430,
                          "duration" : 242,
                          "mediaStart" : 11198,
                          "mediaDuration" : 242,
                          "scalar" : 1,
                          "animationTracks" : {

                          }
                        },
                    "audio" : 
                        {
                          "id" : 33,
                          "_type" : "AMFile",
                          "src" : 1,
                          "trackNumber" : 2,
                          "attributes" : {
                            "ident" : "",
                            "sampleRate" : 44100,
                            "bitDepth" : 16,
                            "gain" : 1.0,
                            "mixToMono" : false
                          },
                            "channelNumber" : "0,1",
                          "effects" : [

                          ],
                          "start" : 9430,
                          "duration" : 242,
                          "mediaStart" : 11198,
                          "mediaDuration" : 242,
                          "scalar" : 1,
                          "animationTracks" : {

                          }
                        }
,
                    "start" : 9430,
                    "duration" : 242,
                    "mediaStart" : 0,
                    "mediaDuration" : 33560,
                    "scalar" : 1,
                    "metadata" : {
                      "AutoAppliedSmartFocus" : "False",
                      "WinSubProjectDisplayName" : "",
                      "clipSpeedAttribute" : false
                    }
                  },
                  {
                    "id" : 34,
                    "_type" : "UnifiedMedia",
                    "video" : 
                        {
                          "id" : 35,
                          "_type" : "ScreenVMFile",
                          "src" : 1,
                          "trackNumber" : 0,
                          "attributes" : {
                            "ident" : "Rec 01-11-22 14"
                          },
                          "parameters" : {
                            "cursorScale" : {
                              "type" : "double",
                              "defaultValue" : 1.0,
                              "interp" : "linr"
                            },
                            "cursorOpacity" : {
                              "type" : "double",
                              "defaultValue" : 1.0,
                              "interp" : "linr"
                            }
                          },
                          "effects" : [

                          ],
                          "start" : 9672,
                          "duration" : 1575,
                          "mediaStart" : 14306,
                          "mediaDuration" : 1575,
                          "scalar" : 1,
                          "animationTracks" : {

                          }
                        },
                    "audio" : 
                        {
                          "id" : 36,
                          "_type" : "AMFile",
                          "src" : 1,
                          "trackNumber" : 2,
                          "attributes" : {
                            "ident" : "",
                            "sampleRate" : 44100,
                            "bitDepth" : 16,
                            "gain" : 1.0,
                            "mixToMono" : false
                          },
                            "channelNumber" : "0,1",
                          "effects" : [

                          ],
                          "start" : 9672,
                          "duration" : 1575,
                          "mediaStart" : 14306,
                          "mediaDuration" : 1575,
                          "scalar" : 1,
                          "animationTracks" : {

                          }
                        }
,
                    "start" : 9672,
                    "duration" : 1575,
                    "mediaStart" : 0,
                    "mediaDuration" : 33560,
                    "scalar" : 1,
                    "metadata" : {
                      "AutoAppliedSmartFocus" : "False",
                      "WinSubProjectDisplayName" : "",
                      "clipSpeedAttribute" : false
                    }
                  },
                  {
                    "id" : 37,
                    "_type" : "UnifiedMedia",
                    "video" : 
                        {
                          "id" : 38,
                          "_type" : "ScreenVMFile",
                          "src" : 1,
                          "trackNumber" : 0,
                          "attributes" : {
                            "ident" : "Rec 01-11-22 14"
                          },
                          "parameters" : {
                            "cursorScale" : {
                              "type" : "double",
                              "defaultValue" : 1.0,
                              "interp" : "linr"
                            },
                            "cursorOpacity" : {
                              "type" : "double",
                              "defaultValue" : 1.0,
                              "interp" : "linr"
                            }
                          },
                          "effects" : [

                          ],
                          "start" : 11247,
                          "duration" : 54,
                          "mediaStart" : 15913,
                          "mediaDuration" : 54,
                          "scalar" : 1,
                          "animationTracks" : {

                          }
                        },
                    "audio" : 
                        {
                          "id" : 39,
                          "_type" : "AMFile",
                          "src" : 1,
                          "trackNumber" : 2,
                          "attributes" : {
                            "ident" : "",
                            "sampleRate" : 44100,
                            "bitDepth" : 16,
                            "gain" : 1.0,
                            "mixToMono" : false
                          },
                            "channelNumber" : "0,1",
                          "effects" : [

                          ],
                          "start" : 11247,
                          "duration" : 54,
                          "mediaStart" : 15913,
                          "mediaDuration" : 54,
                          "scalar" : 1,
                          "animationTracks" : {

                          }
                        }
,
                    "start" : 11247,
                    "duration" : 54,
                    "mediaStart" : 0,
                    "mediaDuration" : 33560,
                    "scalar" : 1,
                    "metadata" : {
                      "AutoAppliedSmartFocus" : "False",
                      "WinSubProjectDisplayName" : "",
                      "clipSpeedAttribute" : false
                    }
                  },
                  {
                    "id" : 40,
                    "_type" : "UnifiedMedia",
                    "video" : 
                        {
                          "id" : 41,
                          "_type" : "ScreenVMFile",
                          "src" : 1,
                          "trackNumber" : 0,
                          "attributes" : {
                            "ident" : "Rec 01-11-22 14"
                          },
                          "parameters" : {
                            "cursorScale" : {
                              "type" : "double",
                              "defaultValue" : 1.0,
                              "interp" : "linr"
                            },
                            "cursorOpacity" : {
                              "type" : "double",
                              "defaultValue" : 1.0,
                              "interp" : "linr"
                            }
                          },
                          "effects" : [

                          ],
                          "start" : 11301,
                          "duration" : 447,
                          "mediaStart" : 15994,
                          "mediaDuration" : 447,
                          "scalar" : 1,
                          "animationTracks" : {

                          }
                        },
                    "audio" : 
                        {
                          "id" : 42,
                          "_type" : "AMFile",
                          "src" : 1,
                          "trackNumber" : 2,
                          "attributes" : {
                            "ident" : "",
                            "sampleRate" : 44100,
                            "bitDepth" : 16,
                            "gain" : 1.0,
                            "mixToMono" : false
                          },
                            "channelNumber" : "0,1",
                          "effects" : [

                          ],
                          "start" : 11301,
                          "duration" : 447,
                          "mediaStart" : 15994,
                          "mediaDuration" : 447,
                          "scalar" : 1,
                          "animationTracks" : {

                          }
                        }
,
                    "start" : 11301,
                    "duration" : 447,
                    "mediaStart" : 0,
                    "mediaDuration" : 33560,
                    "scalar" : 1,
                    "metadata" : {
                      "AutoAppliedSmartFocus" : "False",
                      "WinSubProjectDisplayName" : "",
                      "clipSpeedAttribute" : false
                    }
                  },
                  {
                    "id" : 43,
                    "_type" : "UnifiedMedia",
                    "video" : 
                        {
                          "id" : 44,
                          "_type" : "ScreenVMFile",
                          "src" : 1,
                          "trackNumber" : 0,
                          "attributes" : {
                            "ident" : "Rec 01-11-22 14"
                          },
                          "parameters" : {
                            "cursorScale" : {
                              "type" : "double",
                              "defaultValue" : 1.0,
                              "interp" : "linr"
                            },
                            "cursorOpacity" : {
                              "type" : "double",
                              "defaultValue" : 1.0,
                              "interp" : "linr"
                            }
                          },
                          "effects" : [

                          ],
                          "start" : 11748,
                          "duration" : 114,
                          "mediaStart" : 16557,
                          "mediaDuration" : 114,
                          "scalar" : 1,
                          "animationTracks" : {

                          }
                        },
                    "audio" : 
                        {
                          "id" : 45,
                          "_type" : "AMFile",
                          "src" : 1,
                          "trackNumber" : 2,
                          "attributes" : {
                            "ident" : "",
                            "sampleRate" : 44100,
                            "bitDepth" : 16,
                            "gain" : 1.0,
                            "mixToMono" : false
                          },
                            "channelNumber" : "0,1",
                          "effects" : [

                          ],
                          "start" : 11748,
                          "duration" : 114,
                          "mediaStart" : 16557,
                          "mediaDuration" : 114,
                          "scalar" : 1,
                          "animationTracks" : {

                          }
                        }
,
                    "start" : 11748,
                    "duration" : 114,
                    "mediaStart" : 0,
                    "mediaDuration" : 33560,
                    "scalar" : 1,
                    "metadata" : {
                      "AutoAppliedSmartFocus" : "False",
                      "WinSubProjectDisplayName" : "",
                      "clipSpeedAttribute" : false
                    }
                  },
                  {
                    "id" : 46,
                    "_type" : "UnifiedMedia",
                    "video" : 
                        {
                          "id" : 47,
                          "_type" : "ScreenVMFile",
                          "src" : 1,
                          "trackNumber" : 0,
                          "attributes" : {
                            "ident" : "Rec 01-11-22 14"
                          },
                          "parameters" : {
                            "cursorScale" : {
                              "type" : "double",
                              "defaultValue" : 1.0,
                              "interp" : "linr"
                            },
                            "cursorOpacity" : {
                              "type" : "double",
                              "defaultValue" : 1.0,
                              "interp" : "linr"
                            }
                          },
                          "effects" : [

                          ],
                          "start" : 11862,
                          "duration" : 379,
                          "mediaStart" : 17193,
                          "mediaDuration" : 379,
                          "scalar" : 1,
                          "animationTracks" : {

                          }
                        },
                    "audio" : 
                        {
                          "id" : 48,
                          "_type" : "AMFile",
                          "src" : 1,
                          "trackNumber" : 2,
                          "attributes" : {
                            "ident" : "",
                            "sampleRate" : 44100,
                            "bitDepth" : 16,
                            "gain" : 1.0,
                            "mixToMono" : false
                          },
                            "channelNumber" : "0,1",
                          "effects" : [

                          ],
                          "start" : 11862,
                          "duration" : 379,
                          "mediaStart" : 17193,
                          "mediaDuration" : 379,
                          "scalar" : 1,
                          "animationTracks" : {

                          }
                        }
,
                    "start" : 11862,
                    "duration" : 379,
                    "mediaStart" : 0,
                    "mediaDuration" : 33560,
                    "scalar" : 1,
                    "metadata" : {
                      "AutoAppliedSmartFocus" : "False",
                      "WinSubProjectDisplayName" : "",
                      "clipSpeedAttribute" : false
                    }
                  },
                  {
                    "id" : 49,
                    "_type" : "UnifiedMedia",
                    "video" : 
                        {
                          "id" : 50,
                          "_type" : "ScreenVMFile",
                          "src" : 1,
                          "trackNumber" : 0,
                          "attributes" : {
                            "ident" : "Rec 01-11-22 14"
                          },
                          "parameters" : {
                            "cursorScale" : {
                              "type" : "double",
                              "defaultValue" : 1.0,
                              "interp" : "linr"
                            },
                            "cursorOpacity" : {
                              "type" : "double",
                              "defaultValue" : 1.0,
                              "interp" : "linr"
                            }
                          },
                          "effects" : [

                          ],
                          "start" : 12241,
                          "duration" : 1493,
                          "mediaStart" : 17776,
                          "mediaDuration" : 1493,
                          "scalar" : 1,
                          "animationTracks" : {

                          }
                        },
                    "audio" : 
                        {
                          "id" : 51,
                          "_type" : "AMFile",
                          "src" : 1,
                          "trackNumber" : 2,
                          "attributes" : {
                            "ident" : "",
                            "sampleRate" : 44100,
                            "bitDepth" : 16,
                            "gain" : 1.0,
                            "mixToMono" : false
                          },
                            "channelNumber" : "0,1",
                          "effects" : [

                          ],
                          "start" : 12241,
                          "duration" : 1493,
                          "mediaStart" : 17776,
                          "mediaDuration" : 1493,
                          "scalar" : 1,
                          "animationTracks" : {

                          }
                        }
,
                    "start" : 12241,
                    "duration" : 1493,
                    "mediaStart" : 0,
                    "mediaDuration" : 33560,
                    "scalar" : 1,
                    "metadata" : {
                      "AutoAppliedSmartFocus" : "False",
                      "WinSubProjectDisplayName" : "",
                      "clipSpeedAttribute" : false
                    }
                  },
                  {
                    "id" : 52,
                    "_type" : "UnifiedMedia",
                    "video" : 
                        {
                          "id" : 53,
                          "_type" : "ScreenVMFile",
                          "src" : 1,
                          "trackNumber" : 0,
                          "attributes" : {
                            "ident" : "Rec 01-11-22 14"
                          },
                          "parameters" : {
                            "cursorScale" : {
                              "type" : "double",
                              "defaultValue" : 1.0,
                              "interp" : "linr"
                            },
                            "cursorOpacity" : {
                              "type" : "double",
                              "defaultValue" : 1.0,
                              "interp" : "linr"
                            }
                          },
                          "effects" : [

                          ],
                          "start" : 13734,
                          "duration" : 217,
                          "mediaStart" : 19862,
                          "mediaDuration" : 217,
                          "scalar" : 1,
                          "animationTracks" : {

                          }
                        },
                    "audio" : 
                        {
                          "id" : 54,
                          "_type" : "AMFile",
                          "src" : 1,
                          "trackNumber" : 2,
                          "attributes" : {
                            "ident" : "",
                            "sampleRate" : 44100,
                            "bitDepth" : 16,
                            "gain" : 1.0,
                            "mixToMono" : false
                          },
                            "channelNumber" : "0,1",
                          "effects" : [

                          ],
                          "start" : 13734,
                          "duration" : 217,
                          "mediaStart" : 19862,
                          "mediaDuration" : 217,
                          "scalar" : 1,
                          "animationTracks" : {

                          }
                        }
,
                    "start" : 13734,
                    "duration" : 217,
                    "mediaStart" : 0,
                    "mediaDuration" : 33560,
                    "scalar" : 1,
                    "metadata" : {
                      "AutoAppliedSmartFocus" : "False",
                      "WinSubProjectDisplayName" : "",
                      "clipSpeedAttribute" : false
                    }
                  },
                  {
                    "id" : 55,
                    "_type" : "UnifiedMedia",
                    "video" : 
                        {
                          "id" : 56,
                          "_type" : "ScreenVMFile",
                          "src" : 1,
                          "trackNumber" : 0,
                          "attributes" : {
                            "ident" : "Rec 01-11-22 14"
                          },
                          "parameters" : {
                            "cursorScale" : {
                              "type" : "double",
                              "defaultValue" : 1.0,
                              "interp" : "linr"
                            },
                            "cursorOpacity" : {
                              "type" : "double",
                              "defaultValue" : 1.0,
                              "interp" : "linr"
                            }
                          },
                          "effects" : [

                          ],
                          "start" : 13951,
                          "duration" : 1980,
                          "mediaStart" : 20264,
                          "mediaDuration" : 1980,
                          "scalar" : 1,
                          "animationTracks" : {

                          }
                        },
                    "audio" : 
                        {
                          "id" : 57,
                          "_type" : "AMFile",
                          "src" : 1,
                          "trackNumber" : 2,
                          "attributes" : {
                            "ident" : "",
                            "sampleRate" : 44100,
                            "bitDepth" : 16,
                            "gain" : 1.0,
                            "mixToMono" : false
                          },
                            "channelNumber" : "0,1",
                          "effects" : [

                          ],
                          "start" : 13951,
                          "duration" : 1980,
                          "mediaStart" : 20264,
                          "mediaDuration" : 1980,
                          "scalar" : 1,
                          "animationTracks" : {

                          }
                        }
,
                    "start" : 13951,
                    "duration" : 1980,
                    "mediaStart" : 0,
                    "mediaDuration" : 33560,
                    "scalar" : 1,
                    "metadata" : {
                      "AutoAppliedSmartFocus" : "False",
                      "WinSubProjectDisplayName" : "",
                      "clipSpeedAttribute" : false
                    }
                  },
                  {
                    "id" : 58,
                    "_type" : "UnifiedMedia",
                    "video" : 
                        {
                          "id" : 59,
                          "_type" : "ScreenVMFile",
                          "src" : 1,
                          "trackNumber" : 0,
                          "attributes" : {
                            "ident" : "Rec 01-11-22 14"
                          },
                          "parameters" : {
                            "cursorScale" : {
                              "type" : "double",
                              "defaultValue" : 1.0,
                              "interp" : "linr"
                            },
                            "cursorOpacity" : {
                              "type" : "double",
                              "defaultValue" : 1.0,
                              "interp" : "linr"
                            }
                          },
                          "effects" : [

                          ],
                          "start" : 15931,
                          "duration" : 286,
                          "mediaStart" : 22458,
                          "mediaDuration" : 286,
                          "scalar" : 1,
                          "animationTracks" : {

                          }
                        },
                    "audio" : 
                        {
                          "id" : 60,
                          "_type" : "AMFile",
                          "src" : 1,
                          "trackNumber" : 2,
                          "attributes" : {
                            "ident" : "",
                            "sampleRate" : 44100,
                            "bitDepth" : 16,
                            "gain" : 1.0,
                            "mixToMono" : false
                          },
                            "channelNumber" : "0,1",
                          "effects" : [

                          ],
                          "start" : 15931,
                          "duration" : 286,
                          "mediaStart" : 22458,
                          "mediaDuration" : 286,
                          "scalar" : 1,
                          "animationTracks" : {

                          }
                        }
,
                    "start" : 15931,
                    "duration" : 286,
                    "mediaStart" : 0,
                    "mediaDuration" : 33560,
                    "scalar" : 1,
                    "metadata" : {
                      "AutoAppliedSmartFocus" : "False",
                      "WinSubProjectDisplayName" : "",
                      "clipSpeedAttribute" : false
                    }
                  },
                  {
                    "id" : 61,
                    "_type" : "UnifiedMedia",
                    "video" : 
                        {
                          "id" : 62,
                          "_type" : "ScreenVMFile",
                          "src" : 1,
                          "trackNumber" : 0,
                          "attributes" : {
                            "ident" : "Rec 01-11-22 14"
                          },
                          "parameters" : {
                            "cursorScale" : {
                              "type" : "double",
                              "defaultValue" : 1.0,
                              "interp" : "linr"
                            },
                            "cursorOpacity" : {
                              "type" : "double",
                              "defaultValue" : 1.0,
                              "interp" : "linr"
                            }
                          },
                          "effects" : [

                          ],
                          "start" : 16217,
                          "duration" : 298,
                          "mediaStart" : 22918,
                          "mediaDuration" : 298,
                          "scalar" : 1,
                          "animationTracks" : {

                          }
                        },
                    "audio" : 
                        {
                          "id" : 63,
                          "_type" : "AMFile",
                          "src" : 1,
                          "trackNumber" : 2,
                          "attributes" : {
                            "ident" : "",
                            "sampleRate" : 44100,
                            "bitDepth" : 16,
                            "gain" : 1.0,
                            "mixToMono" : false
                          },
                            "channelNumber" : "0,1",
                          "effects" : [

                          ],
                          "start" : 16217,
                          "duration" : 298,
                          "mediaStart" : 22918,
                          "mediaDuration" : 298,
                          "scalar" : 1,
                          "animationTracks" : {

                          }
                        }
,
                    "start" : 16217,
                    "duration" : 298,
                    "mediaStart" : 0,
                    "mediaDuration" : 33560,
                    "scalar" : 1,
                    "metadata" : {
                      "AutoAppliedSmartFocus" : "False",
                      "WinSubProjectDisplayName" : "",
                      "clipSpeedAttribute" : false
                    }
                  },
                  {
                    "id" : 64,
                    "_type" : "UnifiedMedia",
                    "video" : 
                        {
                          "id" : 65,
                          "_type" : "ScreenVMFile",
                          "src" : 1,
                          "trackNumber" : 0,
                          "attributes" : {
                            "ident" : "Rec 01-11-22 14"
                          },
                          "parameters" : {
                            "cursorScale" : {
                              "type" : "double",
                              "defaultValue" : 1.0,
                              "interp" : "linr"
                            },
                            "cursorOpacity" : {
                              "type" : "double",
                              "defaultValue" : 1.0,
                              "interp" : "linr"
                            }
                          },
                          "effects" : [

                          ],
                          "start" : 16515,
                          "duration" : 172,
                          "mediaStart" : 23250,
                          "mediaDuration" : 172,
                          "scalar" : 1,
                          "animationTracks" : {

                          }
                        },
                    "audio" : 
                        {
                          "id" : 66,
                          "_type" : "AMFile",
                          "src" : 1,
                          "trackNumber" : 2,
                          "attributes" : {
                            "ident" : "",
                            "sampleRate" : 44100,
                            "bitDepth" : 16,
                            "gain" : 1.0,
                            "mixToMono" : false
                          },
                            "channelNumber" : "0,1",
                          "effects" : [

                          ],
                          "start" : 16515,
                          "duration" : 172,
                          "mediaStart" : 23250,
                          "mediaDuration" : 172,
                          "scalar" : 1,
                          "animationTracks" : {

                          }
                        }
,
                    "start" : 16515,
                    "duration" : 172,
                    "mediaStart" : 0,
                    "mediaDuration" : 33560,
                    "scalar" : 1,
                    "metadata" : {
                      "AutoAppliedSmartFocus" : "False",
                      "WinSubProjectDisplayName" : "",
                      "clipSpeedAttribute" : false
                    }
                  },
                  {
                    "id" : 67,
                    "_type" : "UnifiedMedia",
                    "video" : 
                        {
                          "id" : 68,
                          "_type" : "ScreenVMFile",
                          "src" : 1,
                          "trackNumber" : 0,
                          "attributes" : {
                            "ident" : "Rec 01-11-22 14"
                          },
                          "parameters" : {
                            "cursorScale" : {
                              "type" : "double",
                              "defaultValue" : 1.0,
                              "interp" : "linr"
                            },
                            "cursorOpacity" : {
                              "type" : "double",
                              "defaultValue" : 1.0,
                              "interp" : "linr"
                            }
                          },
                          "effects" : [

                          ],
                          "start" : 16687,
                          "duration" : 151,
                          "mediaStart" : 24350,
                          "mediaDuration" : 151,
                          "scalar" : 1,
                          "animationTracks" : {

                          }
                        },
                    "audio" : 
                        {
                          "id" : 69,
                          "_type" : "AMFile",
                          "src" : 1,
                          "trackNumber" : 2,
                          "attributes" : {
                            "ident" : "",
                            "sampleRate" : 44100,
                            "bitDepth" : 16,
                            "gain" : 1.0,
                            "mixToMono" : false
                          },
                            "channelNumber" : "0,1",
                          "effects" : [

                          ],
                          "start" : 16687,
                          "duration" : 151,
                          "mediaStart" : 24350,
                          "mediaDuration" : 151,
                          "scalar" : 1,
                          "animationTracks" : {

                          }
                        }
,
                    "start" : 16687,
                    "duration" : 151,
                    "mediaStart" : 0,
                    "mediaDuration" : 33560,
                    "scalar" : 1,
                    "metadata" : {
                      "AutoAppliedSmartFocus" : "False",
                      "WinSubProjectDisplayName" : "",
                      "clipSpeedAttribute" : false
                    }
                  },
                  {
                    "id" : 70,
                    "_type" : "UnifiedMedia",
                    "video" : 
                        {
                          "id" : 71,
                          "_type" : "ScreenVMFile",
                          "src" : 1,
                          "trackNumber" : 0,
                          "attributes" : {
                            "ident" : "Rec 01-11-22 14"
                          },
                          "parameters" : {
                            "cursorScale" : {
                              "type" : "double",
                              "defaultValue" : 1.0,
                              "interp" : "linr"
                            },
                            "cursorOpacity" : {
                              "type" : "double",
                              "defaultValue" : 1.0,
                              "interp" : "linr"
                            }
                          },
                          "effects" : [

                          ],
                          "start" : 16838,
                          "duration" : 1053,
                          "mediaStart" : 24812,
                          "mediaDuration" : 1053,
                          "scalar" : 1,
                          "animationTracks" : {

                          }
                        },
                    "audio" : 
                        {
                          "id" : 72,
                          "_type" : "AMFile",
                          "src" : 1,
                          "trackNumber" : 2,
                          "attributes" : {
                            "ident" : "",
                            "sampleRate" : 44100,
                            "bitDepth" : 16,
                            "gain" : 1.0,
                            "mixToMono" : false
                          },
                            "channelNumber" : "0,1",
                          "effects" : [

                          ],
                          "start" : 16838,
                          "duration" : 1053,
                          "mediaStart" : 24812,
                          "mediaDuration" : 1053,
                          "scalar" : 1,
                          "animationTracks" : {

                          }
                        }
,
                    "start" : 16838,
                    "duration" : 1053,
                    "mediaStart" : 0,
                    "mediaDuration" : 33560,
                    "scalar" : 1,
                    "metadata" : {
                      "AutoAppliedSmartFocus" : "False",
                      "WinSubProjectDisplayName" : "",
                      "clipSpeedAttribute" : false
                    }
                  },
                  {
                    "id" : 73,
                    "_type" : "UnifiedMedia",
                    "video" : 
                        {
                          "id" : 74,
                          "_type" : "ScreenVMFile",
                          "src" : 1,
                          "trackNumber" : 0,
                          "attributes" : {
                            "ident" : "Rec 01-11-22 14"
                          },
                          "parameters" : {
                            "cursorScale" : {
                              "type" : "double",
                              "defaultValue" : 1.0,
                              "interp" : "linr"
                            },
                            "cursorOpacity" : {
                              "type" : "double",
                              "defaultValue" : 1.0,
                              "interp" : "linr"
                            }
                          },
                          "effects" : [

                          ],
                          "start" : 17891,
                          "duration" : 391,
                          "mediaStart" : 26108,
                          "mediaDuration" : 391,
                          "scalar" : 1,
                          "animationTracks" : {

                          }
                        },
                    "audio" : 
                        {
                          "id" : 75,
                          "_type" : "AMFile",
                          "src" : 1,
                          "trackNumber" : 2,
                          "attributes" : {
                            "ident" : "",
                            "sampleRate" : 44100,
                            "bitDepth" : 16,
                            "gain" : 1.0,
                            "mixToMono" : false
                          },
                            "channelNumber" : "0,1",
                          "effects" : [

                          ],
                          "start" : 17891,
                          "duration" : 391,
                          "mediaStart" : 26108,
                          "mediaDuration" : 391,
                          "scalar" : 1,
                          "animationTracks" : {

                          }
                        }
,
                    "start" : 17891,
                    "duration" : 391,
                    "mediaStart" : 0,
                    "mediaDuration" : 33560,
                    "scalar" : 1,
                    "metadata" : {
                      "AutoAppliedSmartFocus" : "False",
                      "WinSubProjectDisplayName" : "",
                      "clipSpeedAttribute" : false
                    }
                  },
                  {
                    "id" : 76,
                    "_type" : "UnifiedMedia",
                    "video" : 
                        {
                          "id" : 77,
                          "_type" : "ScreenVMFile",
                          "src" : 1,
                          "trackNumber" : 0,
                          "attributes" : {
                            "ident" : "Rec 01-11-22 14"
                          },
                          "parameters" : {
                            "cursorScale" : {
                              "type" : "double",
                              "defaultValue" : 1.0,
                              "interp" : "linr"
                            },
                            "cursorOpacity" : {
                              "type" : "double",
                              "defaultValue" : 1.0,
                              "interp" : "linr"
                            }
                          },
                          "effects" : [

                          ],
                          "start" : 18282,
                          "duration" : 297,
                          "mediaStart" : 26591,
                          "mediaDuration" : 297,
                          "scalar" : 1,
                          "animationTracks" : {

                          }
                        },
                    "audio" : 
                        {
                          "id" : 78,
                          "_type" : "AMFile",
                          "src" : 1,
                          "trackNumber" : 2,
                          "attributes" : {
                            "ident" : "",
                            "sampleRate" : 44100,
                            "bitDepth" : 16,
                            "gain" : 1.0,
                            "mixToMono" : false
                          },
                            "channelNumber" : "0,1",
                          "effects" : [

                          ],
                          "start" : 18282,
                          "duration" : 297,
                          "mediaStart" : 26591,
                          "mediaDuration" : 297,
                          "scalar" : 1,
                          "animationTracks" : {

                          }
                        }
,
                    "start" : 18282,
                    "duration" : 297,
                    "mediaStart" : 0,
                    "mediaDuration" : 33560,
                    "scalar" : 1,
                    "metadata" : {
                      "AutoAppliedSmartFocus" : "False",
                      "WinSubProjectDisplayName" : "",
                      "clipSpeedAttribute" : false
                    }
                  },
                  {
                    "id" : 79,
                    "_type" : "UnifiedMedia",
                    "video" : 
                        {
                          "id" : 80,
                          "_type" : "ScreenVMFile",
                          "src" : 1,
                          "trackNumber" : 0,
                          "attributes" : {
                            "ident" : "Rec 01-11-22 14"
                          },
                          "parameters" : {
                            "cursorScale" : {
                              "type" : "double",
                              "defaultValue" : 1.0,
                              "interp" : "linr"
                            },
                            "cursorOpacity" : {
                              "type" : "double",
                              "defaultValue" : 1.0,
                              "interp" : "linr"
                            }
                          },
                          "effects" : [

                          ],
                          "start" : 18579,
                          "duration" : 1661,
                          "mediaStart" : 27072,
                          "mediaDuration" : 1661,
                          "scalar" : 1,
                          "animationTracks" : {

                          }
                        },
                    "audio" : 
                        {
                          "id" : 81,
                          "_type" : "AMFile",
                          "src" : 1,
                          "trackNumber" : 2,
                          "attributes" : {
                            "ident" : "",
                            "sampleRate" : 44100,
                            "bitDepth" : 16,
                            "gain" : 1.0,
                            "mixToMono" : false
                          },
                            "channelNumber" : "0,1",
                          "effects" : [

                          ],
                          "start" : 18579,
                          "duration" : 1661,
                          "mediaStart" : 27072,
                          "mediaDuration" : 1661,
                          "scalar" : 1,
                          "animationTracks" : {

                          }
                        }
,
                    "start" : 18579,
                    "duration" : 1661,
                    "mediaStart" : 0,
                    "mediaDuration" : 33560,
                    "scalar" : 1,
                    "metadata" : {
                      "AutoAppliedSmartFocus" : "False",
                      "WinSubProjectDisplayName" : "",
                      "clipSpeedAttribute" : false
                    }
                  },
                  {
                    "id" : 82,
                    "_type" : "UnifiedMedia",
                    "video" : 
                        {
                          "id" : 83,
                          "_type" : "ScreenVMFile",
                          "src" : 1,
                          "trackNumber" : 0,
                          "attributes" : {
                            "ident" : "Rec 01-11-22 14"
                          },
                          "parameters" : {
                            "cursorScale" : {
                              "type" : "double",
                              "defaultValue" : 1.0,
                              "interp" : "linr"
                            },
                            "cursorOpacity" : {
                              "type" : "double",
                              "defaultValue" : 1.0,
                              "interp" : "linr"
                            }
                          },
                          "effects" : [

                          ],
                          "start" : 20240,
                          "duration" : 120,
                          "mediaStart" : 29487,
                          "mediaDuration" : 120,
                          "scalar" : 1,
                          "animationTracks" : {

                          }
                        },
                    "audio" : 
                        {
                          "id" : 84,
                          "_type" : "AMFile",
                          "src" : 1,
                          "trackNumber" : 2,
                          "attributes" : {
                            "ident" : "",
                            "sampleRate" : 44100,
                            "bitDepth" : 16,
                            "gain" : 1.0,
                            "mixToMono" : false
                          },
                            "channelNumber" : "0,1",
                          "effects" : [

                          ],
                          "start" : 20240,
                          "duration" : 120,
                          "mediaStart" : 29487,
                          "mediaDuration" : 120,
                          "scalar" : 1,
                          "animationTracks" : {

                          }
                        }
,
                    "start" : 20240,
                    "duration" : 120,
                    "mediaStart" : 0,
                    "mediaDuration" : 33560,
                    "scalar" : 1,
                    "metadata" : {
                      "AutoAppliedSmartFocus" : "False",
                      "WinSubProjectDisplayName" : "",
                      "clipSpeedAttribute" : false
                    }
                  },
                  {
                    "id" : 85,
                    "_type" : "UnifiedMedia",
                    "video" : 
                        {
                          "id" : 86,
                          "_type" : "ScreenVMFile",
                          "src" : 1,
                          "trackNumber" : 0,
                          "attributes" : {
                            "ident" : "Rec 01-11-22 14"
                          },
                          "parameters" : {
                            "cursorScale" : {
                              "type" : "double",
                              "defaultValue" : 1.0,
                              "interp" : "linr"
                            },
                            "cursorOpacity" : {
                              "type" : "double",
                              "defaultValue" : 1.0,
                              "interp" : "linr"
                            }
                          },
                          "effects" : [

                          ],
                          "start" : 20360,
                          "duration" : 555,
                          "mediaStart" : 29664,
                          "mediaDuration" : 555,
                          "scalar" : 1,
                          "animationTracks" : {

                          }
                        },
                    "audio" : 
                        {
                          "id" : 87,
                          "_type" : "AMFile",
                          "src" : 1,
                          "trackNumber" : 2,
                          "attributes" : {
                            "ident" : "",
                            "sampleRate" : 44100,
                            "bitDepth" : 16,
                            "gain" : 1.0,
                            "mixToMono" : false
                          },
                            "channelNumber" : "0,1",
                          "effects" : [

                          ],
                          "start" : 20360,
                          "duration" : 555,
                          "mediaStart" : 29664,
                          "mediaDuration" : 555,
                          "scalar" : 1,
                          "animationTracks" : {

                          }
                        }
,
                    "start" : 20360,
                    "duration" : 555,
                    "mediaStart" : 0,
                    "mediaDuration" : 33560,
                    "scalar" : 1,
                    "metadata" : {
                      "AutoAppliedSmartFocus" : "False",
                      "WinSubProjectDisplayName" : "",
                      "clipSpeedAttribute" : false
                    }
                  },
                  {
                    "id" : 88,
                    "_type" : "UnifiedMedia",
                    "video" : 
                        {
                          "id" : 89,
                          "_type" : "ScreenVMFile",
                          "src" : 1,
                          "trackNumber" : 0,
                          "attributes" : {
                            "ident" : "Rec 01-11-22 14"
                          },
                          "parameters" : {
                            "cursorScale" : {
                              "type" : "double",
                              "defaultValue" : 1.0,
                              "interp" : "linr"
                            },
                            "cursorOpacity" : {
                              "type" : "double",
                              "defaultValue" : 1.0,
                              "interp" : "linr"
                            }
                          },
                          "effects" : [

                          ],
                          "start" : 20915,
                          "duration" : 94,
                          "mediaStart" : 30494,
                          "mediaDuration" : 94,
                          "scalar" : 1,
                          "animationTracks" : {

                          }
                        },
                    "audio" : 
                        {
                          "id" : 90,
                          "_type" : "AMFile",
                          "src" : 1,
                          "trackNumber" : 2,
                          "attributes" : {
                            "ident" : "",
                            "sampleRate" : 44100,
                            "bitDepth" : 16,
                            "gain" : 1.0,
                            "mixToMono" : false
                          },
                            "channelNumber" : "0,1",
                          "effects" : [

                          ],
                          "start" : 20915,
                          "duration" : 94,
                          "mediaStart" : 30494,
                          "mediaDuration" : 94,
                          "scalar" : 1,
                          "animationTracks" : {

                          }
                        }
,
                    "start" : 20915,
                    "duration" : 94,
                    "mediaStart" : 0,
                    "mediaDuration" : 33560,
                    "scalar" : 1,
                    "metadata" : {
                      "AutoAppliedSmartFocus" : "False",
                      "WinSubProjectDisplayName" : "",
                      "clipSpeedAttribute" : false
                    }
                  },
                  {
                    "id" : 91,
                    "_type" : "UnifiedMedia",
                    "video" : 
                        {
                          "id" : 92,
                          "_type" : "ScreenVMFile",
                          "src" : 2,
                          "trackNumber" : 0,
                          "attributes" : {
                            "ident" : "Rec 01-11-22 15"
                          },
                          "parameters" : {
                            "cursorScale" : {
                              "type" : "double",
                              "defaultValue" : 1.0,
                              "interp" : "linr"
                            },
                            "cursorOpacity" : {
                              "type" : "double",
                              "defaultValue" : 1.0,
                              "interp" : "linr"
                            }
                          },
                          "effects" : [

                          ],
                          "start" : 21009,
                          "duration" : 591,
                          "mediaStart" : 0,
                          "mediaDuration" : 591,
                          "scalar" : 1,
                          "animationTracks" : {

                          }
                        },
                    "audio" : 
                        {
                          "id" : 93,
                          "_type" : "AMFile",
                          "src" : 2,
                          "trackNumber" : 2,
                          "attributes" : {
                            "ident" : "",
                            "sampleRate" : 44100,
                            "bitDepth" : 16,
                            "gain" : 1.0,
                            "mixToMono" : false
                          },
                            "channelNumber" : "0,1",
                          "effects" : [

                          ],
                          "start" : 21009,
                          "duration" : 591,
                          "mediaStart" : 0,
                          "mediaDuration" : 591,
                          "scalar" : 1,
                          "animationTracks" : {

                          }
                        }
,
                    "start" : 21009,
                    "duration" : 591,
                    "mediaStart" : 0,
                    "mediaDuration" : 8193,
                    "scalar" : 1,
                    "metadata" : {
                      "AutoAppliedSmartFocus" : "False",
                      "WinSubProjectDisplayName" : "",
                      "clipSpeedAttribute" : false
                    }
                  },
                  {
                    "id" : 94,
                    "_type" : "UnifiedMedia",
                    "video" : 
                        {
                          "id" : 95,
                          "_type" : "ScreenVMFile",
                          "src" : 2,
                          "trackNumber" : 0,
                          "attributes" : {
                            "ident" : "Rec 01-11-22 15"
                          },
                          "parameters" : {
                            "cursorScale" : {
                              "type" : "double",
                              "defaultValue" : 1.0,
                              "interp" : "linr"
                            },
                            "cursorOpacity" : {
                              "type" : "double",
                              "defaultValue" : 1.0,
                              "interp" : "linr"
                            }
                          },
                          "effects" : [

                          ],
                          "start" : 21600,
                          "duration" : 685,
                          "mediaStart" : 977,
                          "mediaDuration" : 685,
                          "scalar" : 1,
                          "animationTracks" : {

                          }
                        },
                    "audio" : 
                        {
                          "id" : 96,
                          "_type" : "AMFile",
                          "src" : 2,
                          "trackNumber" : 2,
                          "attributes" : {
                            "ident" : "",
                            "sampleRate" : 44100,
                            "bitDepth" : 16,
                            "gain" : 1.0,
                            "mixToMono" : false
                          },
                            "channelNumber" : "0,1",
                          "effects" : [

                          ],
                          "start" : 21600,
                          "duration" : 685,
                          "mediaStart" : 977,
                          "mediaDuration" : 685,
                          "scalar" : 1,
                          "animationTracks" : {

                          }
                        }
,
                    "start" : 21600,
                    "duration" : 685,
                    "mediaStart" : 0,
                    "mediaDuration" : 8193,
                    "scalar" : 1,
                    "metadata" : {
                      "AutoAppliedSmartFocus" : "False",
                      "WinSubProjectDisplayName" : "",
                      "clipSpeedAttribute" : false
                    }
                  },
                  {
                    "id" : 97,
                    "_type" : "UnifiedMedia",
                    "video" : 
                        {
                          "id" : 98,
                          "_type" : "ScreenVMFile",
                          "src" : 2,
                          "trackNumber" : 0,
                          "attributes" : {
                            "ident" : "Rec 01-11-22 15"
                          },
                          "parameters" : {
                            "cursorScale" : {
                              "type" : "double",
                              "defaultValue" : 1.0,
                              "interp" : "linr"
                            },
                            "cursorOpacity" : {
                              "type" : "double",
                              "defaultValue" : 1.0,
                              "interp" : "linr"
                            }
                          },
                          "effects" : [

                          ],
                          "start" : 22285,
                          "duration" : 372,
                          "mediaStart" : 2955,
                          "mediaDuration" : 372,
                          "scalar" : 1,
                          "animationTracks" : {

                          }
                        },
                    "audio" : 
                        {
                          "id" : 99,
                          "_type" : "AMFile",
                          "src" : 2,
                          "trackNumber" : 2,
                          "attributes" : {
                            "ident" : "",
                            "sampleRate" : 44100,
                            "bitDepth" : 16,
                            "gain" : 1.0,
                            "mixToMono" : false
                          },
                            "channelNumber" : "0,1",
                          "effects" : [

                          ],
                          "start" : 22285,
                          "duration" : 372,
                          "mediaStart" : 2955,
                          "mediaDuration" : 372,
                          "scalar" : 1,
                          "animationTracks" : {

                          }
                        }
,
                    "start" : 22285,
                    "duration" : 372,
                    "mediaStart" : 0,
                    "mediaDuration" : 8193,
                    "scalar" : 1,
                    "metadata" : {
                      "AutoAppliedSmartFocus" : "False",
                      "WinSubProjectDisplayName" : "",
                      "clipSpeedAttribute" : false
                    }
                  },
                  {
                    "id" : 100,
                    "_type" : "UnifiedMedia",
                    "video" : 
                        {
                          "id" : 101,
                          "_type" : "ScreenVMFile",
                          "src" : 2,
                          "trackNumber" : 0,
                          "attributes" : {
                            "ident" : "Rec 01-11-22 15"
                          },
                          "parameters" : {
                            "cursorScale" : {
                              "type" : "double",
                              "defaultValue" : 1.0,
                              "interp" : "linr"
                            },
                            "cursorOpacity" : {
                              "type" : "double",
                              "defaultValue" : 1.0,
                              "interp" : "linr"
                            }
                          },
                          "effects" : [

                          ],
                          "start" : 22657,
                          "duration" : 609,
                          "mediaStart" : 3421,
                          "mediaDuration" : 609,
                          "scalar" : 1,
                          "animationTracks" : {

                          }
                        },
                    "audio" : 
                        {
                          "id" : 102,
                          "_type" : "AMFile",
                          "src" : 2,
                          "trackNumber" : 2,
                          "attributes" : {
                            "ident" : "",
                            "sampleRate" : 44100,
                            "bitDepth" : 16,
                            "gain" : 1.0,
                            "mixToMono" : false
                          },
                            "channelNumber" : "0,1",
                          "effects" : [

                          ],
                          "start" : 22657,
                          "duration" : 609,
                          "mediaStart" : 3421,
                          "mediaDuration" : 609,
                          "scalar" : 1,
                          "animationTracks" : {

                          }
                        }
,
                    "start" : 22657,
                    "duration" : 609,
                    "mediaStart" : 0,
                    "mediaDuration" : 8193,
                    "scalar" : 1,
                    "metadata" : {
                      "AutoAppliedSmartFocus" : "False",
                      "WinSubProjectDisplayName" : "",
                      "clipSpeedAttribute" : false
                    }
                  },
                  {
                    "id" : 103,
                    "_type" : "UnifiedMedia",
                    "video" : 
                        {
                          "id" : 104,
                          "_type" : "ScreenVMFile",
                          "src" : 2,
                          "trackNumber" : 0,
                          "attributes" : {
                            "ident" : "Rec 01-11-22 15"
                          },
                          "parameters" : {
                            "cursorScale" : {
                              "type" : "double",
                              "defaultValue" : 1.0,
                              "interp" : "linr"
                            },
                            "cursorOpacity" : {
                              "type" : "double",
                              "defaultValue" : 1.0,
                              "interp" : "linr"
                            }
                          },
                          "effects" : [

                          ],
                          "start" : 23266,
                          "duration" : 553,
                          "mediaStart" : 4364,
                          "mediaDuration" : 553,
                          "scalar" : 1,
                          "animationTracks" : {

                          }
                        },
                    "audio" : 
                        {
                          "id" : 105,
                          "_type" : "AMFile",
                          "src" : 2,
                          "trackNumber" : 2,
                          "attributes" : {
                            "ident" : "",
                            "sampleRate" : 44100,
                            "bitDepth" : 16,
                            "gain" : 1.0,
                            "mixToMono" : false
                          },
                            "channelNumber" : "0,1",
                          "effects" : [

                          ],
                          "start" : 23266,
                          "duration" : 553,
                          "mediaStart" : 4364,
                          "mediaDuration" : 553,
                          "scalar" : 1,
                          "animationTracks" : {

                          }
                        }
,
                    "start" : 23266,
                    "duration" : 553,
                    "mediaStart" : 0,
                    "mediaDuration" : 8193,
                    "scalar" : 1,
                    "metadata" : {
                      "AutoAppliedSmartFocus" : "False",
                      "WinSubProjectDisplayName" : "",
                      "clipSpeedAttribute" : false
                    }
                  },
                  {
                    "id" : 106,
                    "_type" : "UnifiedMedia",
                    "video" : 
                        {
                          "id" : 107,
                          "_type" : "ScreenVMFile",
                          "src" : 2,
                          "trackNumber" : 0,
                          "attributes" : {
                            "ident" : "Rec 01-11-22 15"
                          },
                          "parameters" : {
                            "cursorScale" : {
                              "type" : "double",
                              "defaultValue" : 1.0,
                              "interp" : "linr"
                            },
                            "cursorOpacity" : {
                              "type" : "double",
                              "defaultValue" : 1.0,
                              "interp" : "linr"
                            }
                          },
                          "effects" : [

                          ],
                          "start" : 23819,
                          "duration" : 1864,
                          "mediaStart" : 4969,
                          "mediaDuration" : 1864,
                          "scalar" : 1,
                          "animationTracks" : {

                          }
                        },
                    "audio" : 
                        {
                          "id" : 108,
                          "_type" : "AMFile",
                          "src" : 2,
                          "trackNumber" : 2,
                          "attributes" : {
                            "ident" : "",
                            "sampleRate" : 44100,
                            "bitDepth" : 16,
                            "gain" : 1.0,
                            "mixToMono" : false
                          },
                            "channelNumber" : "0,1",
                          "effects" : [

                          ],
                          "start" : 23819,
                          "duration" : 1864,
                          "mediaStart" : 4969,
                          "mediaDuration" : 1864,
                          "scalar" : 1,
                          "animationTracks" : {

                          }
                        }
,
                    "start" : 23819,
                    "duration" : 1864,
                    "mediaStart" : 0,
                    "mediaDuration" : 8193,
                    "scalar" : 1,
                    "metadata" : {
                      "AutoAppliedSmartFocus" : "False",
                      "WinSubProjectDisplayName" : "",
                      "clipSpeedAttribute" : false
                    }
                  },
                  {
                    "id" : 109,
                    "_type" : "UnifiedMedia",
                    "video" : 
                        {
                          "id" : 110,
                          "_type" : "ScreenVMFile",
                          "src" : 2,
                          "trackNumber" : 0,
                          "attributes" : {
                            "ident" : "Rec 01-11-22 15"
                          },
                          "parameters" : {
                            "cursorScale" : {
                              "type" : "double",
                              "defaultValue" : 1.0,
                              "interp" : "linr"
                            },
                            "cursorOpacity" : {
                              "type" : "double",
                              "defaultValue" : 1.0,
                              "interp" : "linr"
                            }
                          },
                          "effects" : [

                          ],
                          "start" : 25683,
                          "duration" : 449,
                          "mediaStart" : 7744,
                          "mediaDuration" : 449,
                          "scalar" : 1,
                          "animationTracks" : {

                          }
                        },
                    "audio" : 
                        {
                          "id" : 111,
                          "_type" : "AMFile",
                          "src" : 2,
                          "trackNumber" : 2,
                          "attributes" : {
                            "ident" : "",
                            "sampleRate" : 44100,
                            "bitDepth" : 16,
                            "gain" : 1.0,
                            "mixToMono" : false
                          },
                            "channelNumber" : "0,1",
                          "effects" : [

                          ],
                          "start" : 25683,
                          "duration" : 449,
                          "mediaStart" : 7744,
                          "mediaDuration" : 449,
                          "scalar" : 1,
                          "animationTracks" : {

                          }
                        }
,
                    "start" : 25683,
                    "duration" : 449,
                    "mediaStart" : 0,
                    "mediaDuration" : 8193,
                    "scalar" : 1,
                    "metadata" : {
                      "AutoAppliedSmartFocus" : "False",
                      "WinSubProjectDisplayName" : "",
                      "clipSpeedAttribute" : false
                    }
                  }
                ]
              },
              {
                "trackIndex" : 1,
                "medias" : [
                  {
                    "id" : 112,
                    "_type" : "AMFile",
                    "src" : 1,
                    "trackNumber" : 1,
                    "attributes" : {
                      "ident" : "Rec 01-11-22 14",
                      "sampleRate" : 44100,
                      "bitDepth" : 16,
                      "gain" : 1.0,
                      "mixToMono" : false
                    },
                      "channelNumber" : "0,1",
                    "effects" : [

                    ],
                    "start" : 0,
                    "duration" : 560,
                    "mediaStart" : 33,
                    "mediaDuration" : 560,
                    "scalar" : 1,
                    "metadata" : {
                      "WinSubProjectDisplayName" : "",
                      "clipSpeedAttribute" : false
                    },
                    "animationTracks" : {

                    }
                  },
                  {
                    "id" : 113,
                    "_type" : "AMFile",
                    "src" : 1,
                    "trackNumber" : 1,
                    "attributes" : {
                      "ident" : "Rec 01-11-22 14",
                      "sampleRate" : 44100,
                      "bitDepth" : 16,
                      "gain" : 1.0,
                      "mixToMono" : false
                    },
                      "channelNumber" : "0,1",
                    "effects" : [

                    ],
                    "start" : 560,
                    "duration" : 725,
                    "mediaStart" : 690,
                    "mediaDuration" : 725,
                    "scalar" : 1,
                    "metadata" : {
                      "WinSubProjectDisplayName" : "",
                      "clipSpeedAttribute" : false
                    },
                    "animationTracks" : {

                    }
                  },
                  {
                    "id" : 114,
                    "_type" : "AMFile",
                    "src" : 1,
                    "trackNumber" : 1,
                    "attributes" : {
                      "ident" : "Rec 01-11-22 14",
                      "sampleRate" : 44100,
                      "bitDepth" : 16,
                      "gain" : 1.0,
                      "mixToMono" : false
                    },
                      "channelNumber" : "0,1",
                    "effects" : [

                    ],
                    "start" : 1285,
                    "duration" : 990,
                    "mediaStart" : 1434,
                    "mediaDuration" : 990,
                    "scalar" : 1,
                    "metadata" : {
                      "WinSubProjectDisplayName" : "",
                      "clipSpeedAttribute" : false
                    },
                    "animationTracks" : {

                    }
                  },
                  {
                    "id" : 115,
                    "_type" : "AMFile",
                    "src" : 1,
                    "trackNumber" : 1,
                    "attributes" : {
                      "ident" : "Rec 01-11-22 14",
                      "sampleRate" : 44100,
                      "bitDepth" : 16,
                      "gain" : 1.0,
                      "mixToMono" : false
                    },
                      "channelNumber" : "0,1",
                    "effects" : [

                    ],
                    "start" : 2275,
                    "duration" : 206,
                    "mediaStart" : 2468,
                    "mediaDuration" : 206,
                    "scalar" : 1,
                    "metadata" : {
                      "WinSubProjectDisplayName" : "",
                      "clipSpeedAttribute" : false
                    },
                    "animationTracks" : {

                    }
                  },
                  {
                    "id" : 116,
                    "_type" : "AMFile",
                    "src" : 1,
                    "trackNumber" : 1,
                    "attributes" : {
                      "ident" : "Rec 01-11-22 14",
                      "sampleRate" : 44100,
                      "bitDepth" : 16,
                      "gain" : 1.0,
                      "mixToMono" : false
                    },
                      "channelNumber" : "0,1",
                    "effects" : [

                    ],
                    "start" : 2481,
                    "duration" : 376,
                    "mediaStart" : 3029,
                    "mediaDuration" : 376,
                    "scalar" : 1,
                    "metadata" : {
                      "WinSubProjectDisplayName" : "",
                      "clipSpeedAttribute" : false
                    },
                    "animationTracks" : {

                    }
                  },
                  {
                    "id" : 117,
                    "_type" : "AMFile",
                    "src" : 1,
                    "trackNumber" : 1,
                    "attributes" : {
                      "ident" : "Rec 01-11-22 14",
                      "sampleRate" : 44100,
                      "bitDepth" : 16,
                      "gain" : 1.0,
                      "mixToMono" : false
                    },
                      "channelNumber" : "0,1",
                    "effects" : [

                    ],
                    "start" : 2857,
                    "duration" : 806,
                    "mediaStart" : 3909,
                    "mediaDuration" : 806,
                    "scalar" : 1,
                    "metadata" : {
                      "WinSubProjectDisplayName" : "",
                      "clipSpeedAttribute" : false
                    },
                    "animationTracks" : {

                    }
                  },
                  {
                    "id" : 118,
                    "_type" : "AMFile",
                    "src" : 1,
                    "trackNumber" : 1,
                    "attributes" : {
                      "ident" : "Rec 01-11-22 14",
                      "sampleRate" : 44100,
                      "bitDepth" : 16,
                      "gain" : 1.0,
                      "mixToMono" : false
                    },
                      "channelNumber" : "0,1",
                    "effects" : [

                    ],
                    "start" : 3663,
                    "duration" : 5034,
                    "mediaStart" : 4833,
                    "mediaDuration" : 5034,
                    "scalar" : 1,
                    "metadata" : {
                      "WinSubProjectDisplayName" : "",
                      "clipSpeedAttribute" : false
                    },
                    "animationTracks" : {

                    }
                  },
                  {
                    "id" : 119,
                    "_type" : "AMFile",
                    "src" : 1,
                    "trackNumber" : 1,
                    "attributes" : {
                      "ident" : "Rec 01-11-22 14",
                      "sampleRate" : 44100,
                      "bitDepth" : 16,
                      "gain" : 1.0,
                      "mixToMono" : false
                    },
                      "channelNumber" : "0,1",
                    "effects" : [

                    ],
                    "start" : 8697,
                    "duration" : 538,
                    "mediaStart" : 10307,
                    "mediaDuration" : 538,
                    "scalar" : 1,
                    "metadata" : {
                      "WinSubProjectDisplayName" : "",
                      "clipSpeedAttribute" : false
                    },
                    "animationTracks" : {

                    }
                  },
                  {
                    "id" : 120,
                    "_type" : "AMFile",
                    "src" : 1,
                    "trackNumber" : 1,
                    "attributes" : {
                      "ident" : "Rec 01-11-22 14",
                      "sampleRate" : 44100,
                      "bitDepth" : 16,
                      "gain" : 1.0,
                      "mixToMono" : false
                    },
                      "channelNumber" : "0,1",
                    "effects" : [

                    ],
                    "start" : 9235,
                    "duration" : 195,
                    "mediaStart" : 10969,
                    "mediaDuration" : 195,
                    "scalar" : 1,
                    "metadata" : {
                      "WinSubProjectDisplayName" : "",
                      "clipSpeedAttribute" : false
                    },
                    "animationTracks" : {

                    }
                  },
                  {
                    "id" : 121,
                    "_type" : "AMFile",
                    "src" : 1,
                    "trackNumber" : 1,
                    "attributes" : {
                      "ident" : "Rec 01-11-22 14",
                      "sampleRate" : 44100,
                      "bitDepth" : 16,
                      "gain" : 1.0,
                      "mixToMono" : false
                    },
                      "channelNumber" : "0,1",
                    "effects" : [

                    ],
                    "start" : 9430,
                    "duration" : 242,
                    "mediaStart" : 11198,
                    "mediaDuration" : 242,
                    "scalar" : 1,
                    "metadata" : {
                      "WinSubProjectDisplayName" : "",
                      "clipSpeedAttribute" : false
                    },
                    "animationTracks" : {

                    }
                  },
                  {
                    "id" : 122,
                    "_type" : "AMFile",
                    "src" : 1,
                    "trackNumber" : 1,
                    "attributes" : {
                      "ident" : "Rec 01-11-22 14",
                      "sampleRate" : 44100,
                      "bitDepth" : 16,
                      "gain" : 1.0,
                      "mixToMono" : false
                    },
                      "channelNumber" : "0,1",
                    "effects" : [

                    ],
                    "start" : 9672,
                    "duration" : 1575,
                    "mediaStart" : 14306,
                    "mediaDuration" : 1575,
                    "scalar" : 1,
                    "metadata" : {
                      "WinSubProjectDisplayName" : "",
                      "clipSpeedAttribute" : false
                    },
                    "animationTracks" : {

                    }
                  },
                  {
                    "id" : 123,
                    "_type" : "AMFile",
                    "src" : 1,
                    "trackNumber" : 1,
                    "attributes" : {
                      "ident" : "Rec 01-11-22 14",
                      "sampleRate" : 44100,
                      "bitDepth" : 16,
                      "gain" : 1.0,
                      "mixToMono" : false
                    },
                      "channelNumber" : "0,1",
                    "effects" : [

                    ],
                    "start" : 11247,
                    "duration" : 54,
                    "mediaStart" : 15913,
                    "mediaDuration" : 54,
                    "scalar" : 1,
                    "metadata" : {
                      "WinSubProjectDisplayName" : "",
                      "clipSpeedAttribute" : false
                    },
                    "animationTracks" : {

                    }
                  },
                  {
                    "id" : 124,
                    "_type" : "AMFile",
                    "src" : 1,
                    "trackNumber" : 1,
                    "attributes" : {
                      "ident" : "Rec 01-11-22 14",
                      "sampleRate" : 44100,
                      "bitDepth" : 16,
                      "gain" : 1.0,
                      "mixToMono" : false
                    },
                      "channelNumber" : "0,1",
                    "effects" : [

                    ],
                    "start" : 11301,
                    "duration" : 447,
                    "mediaStart" : 15994,
                    "mediaDuration" : 447,
                    "scalar" : 1,
                    "metadata" : {
                      "WinSubProjectDisplayName" : "",
                      "clipSpeedAttribute" : false
                    },
                    "animationTracks" : {

                    }
                  },
                  {
                    "id" : 125,
                    "_type" : "AMFile",
                    "src" : 1,
                    "trackNumber" : 1,
                    "attributes" : {
                      "ident" : "Rec 01-11-22 14",
                      "sampleRate" : 44100,
                      "bitDepth" : 16,
                      "gain" : 1.0,
                      "mixToMono" : false
                    },
                      "channelNumber" : "0,1",
                    "effects" : [

                    ],
                    "start" : 11748,
                    "duration" : 114,
                    "mediaStart" : 16557,
                    "mediaDuration" : 114,
                    "scalar" : 1,
                    "metadata" : {
                      "WinSubProjectDisplayName" : "",
                      "clipSpeedAttribute" : false
                    },
                    "animationTracks" : {

                    }
                  },
                  {
                    "id" : 126,
                    "_type" : "AMFile",
                    "src" : 1,
                    "trackNumber" : 1,
                    "attributes" : {
                      "ident" : "Rec 01-11-22 14",
                      "sampleRate" : 44100,
                      "bitDepth" : 16,
                      "gain" : 1.0,
                      "mixToMono" : false
                    },
                      "channelNumber" : "0,1",
                    "effects" : [

                    ],
                    "start" : 11862,
                    "duration" : 379,
                    "mediaStart" : 17193,
                    "mediaDuration" : 379,
                    "scalar" : 1,
                    "metadata" : {
                      "WinSubProjectDisplayName" : "",
                      "clipSpeedAttribute" : false
                    },
                    "animationTracks" : {

                    }
                  },
                  {
                    "id" : 127,
                    "_type" : "AMFile",
                    "src" : 1,
                    "trackNumber" : 1,
                    "attributes" : {
                      "ident" : "Rec 01-11-22 14",
                      "sampleRate" : 44100,
                      "bitDepth" : 16,
                      "gain" : 1.0,
                      "mixToMono" : false
                    },
                      "channelNumber" : "0,1",
                    "effects" : [

                    ],
                    "start" : 12241,
                    "duration" : 1493,
                    "mediaStart" : 17776,
                    "mediaDuration" : 1493,
                    "scalar" : 1,
                    "metadata" : {
                      "WinSubProjectDisplayName" : "",
                      "clipSpeedAttribute" : false
                    },
                    "animationTracks" : {

                    }
                  },
                  {
                    "id" : 128,
                    "_type" : "AMFile",
                    "src" : 1,
                    "trackNumber" : 1,
                    "attributes" : {
                      "ident" : "Rec 01-11-22 14",
                      "sampleRate" : 44100,
                      "bitDepth" : 16,
                      "gain" : 1.0,
                      "mixToMono" : false
                    },
                      "channelNumber" : "0,1",
                    "effects" : [

                    ],
                    "start" : 13734,
                    "duration" : 217,
                    "mediaStart" : 19862,
                    "mediaDuration" : 217,
                    "scalar" : 1,
                    "metadata" : {
                      "WinSubProjectDisplayName" : "",
                      "clipSpeedAttribute" : false
                    },
                    "animationTracks" : {

                    }
                  },
                  {
                    "id" : 129,
                    "_type" : "AMFile",
                    "src" : 1,
                    "trackNumber" : 1,
                    "attributes" : {
                      "ident" : "Rec 01-11-22 14",
                      "sampleRate" : 44100,
                      "bitDepth" : 16,
                      "gain" : 1.0,
                      "mixToMono" : false
                    },
                      "channelNumber" : "0,1",
                    "effects" : [

                    ],
                    "start" : 13951,
                    "duration" : 1980,
                    "mediaStart" : 20264,
                    "mediaDuration" : 1980,
                    "scalar" : 1,
                    "metadata" : {
                      "WinSubProjectDisplayName" : "",
                      "clipSpeedAttribute" : false
                    },
                    "animationTracks" : {

                    }
                  },
                  {
                    "id" : 130,
                    "_type" : "AMFile",
                    "src" : 1,
                    "trackNumber" : 1,
                    "attributes" : {
                      "ident" : "Rec 01-11-22 14",
                      "sampleRate" : 44100,
                      "bitDepth" : 16,
                      "gain" : 1.0,
                      "mixToMono" : false
                    },
                      "channelNumber" : "0,1",
                    "effects" : [

                    ],
                    "start" : 15931,
                    "duration" : 286,
                    "mediaStart" : 22458,
                    "mediaDuration" : 286,
                    "scalar" : 1,
                    "metadata" : {
                      "WinSubProjectDisplayName" : "",
                      "clipSpeedAttribute" : false
                    },
                    "animationTracks" : {

                    }
                  },
                  {
                    "id" : 131,
                    "_type" : "AMFile",
                    "src" : 1,
                    "trackNumber" : 1,
                    "attributes" : {
                      "ident" : "Rec 01-11-22 14",
                      "sampleRate" : 44100,
                      "bitDepth" : 16,
                      "gain" : 1.0,
                      "mixToMono" : false
                    },
                      "channelNumber" : "0,1",
                    "effects" : [

                    ],
                    "start" : 16217,
                    "duration" : 298,
                    "mediaStart" : 22918,
                    "mediaDuration" : 298,
                    "scalar" : 1,
                    "metadata" : {
                      "WinSubProjectDisplayName" : "",
                      "clipSpeedAttribute" : false
                    },
                    "animationTracks" : {

                    }
                  },
                  {
                    "id" : 132,
                    "_type" : "AMFile",
                    "src" : 1,
                    "trackNumber" : 1,
                    "attributes" : {
                      "ident" : "Rec 01-11-22 14",
                      "sampleRate" : 44100,
                      "bitDepth" : 16,
                      "gain" : 1.0,
                      "mixToMono" : false
                    },
                      "channelNumber" : "0,1",
                    "effects" : [

                    ],
                    "start" : 16515,
                    "duration" : 172,
                    "mediaStart" : 23250,
                    "mediaDuration" : 172,
                    "scalar" : 1,
                    "metadata" : {
                      "WinSubProjectDisplayName" : "",
                      "clipSpeedAttribute" : false
                    },
                    "animationTracks" : {

                    }
                  },
                  {
                    "id" : 133,
                    "_type" : "AMFile",
                    "src" : 1,
                    "trackNumber" : 1,
                    "attributes" : {
                      "ident" : "Rec 01-11-22 14",
                      "sampleRate" : 44100,
                      "bitDepth" : 16,
                      "gain" : 1.0,
                      "mixToMono" : false
                    },
                      "channelNumber" : "0,1",
                    "parameters" : {
                      "volume" : {
                        "type" : "double",
                        "keyframes" : [
                          {
                            "time" : 0,
                            "value" : 1.85714285714286,
                            "duration" : 0
                          },
                          {
                            "time" : 24390,
                            "value" : 0.92384665755788,
                            "duration" : 0
                          },
                          {
                            "time" : 24391,
                            "value" : 0.0,
                            "duration" : 0
                          },
                          {
                            "time" : 24452,
                            "value" : 0.0,
                            "duration" : 0
                          },
                          {
                            "time" : 24501,
                            "value" : 0.0,
                            "duration" : 0
                          },
                          {
                            "time" : 24502,
                            "value" : 1.0,
                            "duration" : 0
                          }
                        ]
                      }
                    },
                    "effects" : [

                    ],
                    "start" : 16687,
                    "duration" : 151,
                    "mediaStart" : 24350,
                    "mediaDuration" : 151,
                    "scalar" : 1,
                    "metadata" : {
                      "WinSubProjectDisplayName" : "",
                      "clipSpeedAttribute" : false
                    },
                    "animationTracks" : {

                    }
                  },
                  {
                    "id" : 134,
                    "_type" : "AMFile",
                    "src" : 1,
                    "trackNumber" : 1,
                    "attributes" : {
                      "ident" : "Rec 01-11-22 14",
                      "sampleRate" : 44100,
                      "bitDepth" : 16,
                      "gain" : 1.0,
                      "mixToMono" : false
                    },
                      "channelNumber" : "0,1",
                    "effects" : [

                    ],
                    "start" : 16838,
                    "duration" : 1053,
                    "mediaStart" : 24812,
                    "mediaDuration" : 1053,
                    "scalar" : 1,
                    "metadata" : {
                      "WinSubProjectDisplayName" : "",
                      "clipSpeedAttribute" : false
                    },
                    "animationTracks" : {

                    }
                  },
                  {
                    "id" : 135,
                    "_type" : "AMFile",
                    "src" : 1,
                    "trackNumber" : 1,
                    "attributes" : {
                      "ident" : "Rec 01-11-22 14",
                      "sampleRate" : 44100,
                      "bitDepth" : 16,
                      "gain" : 1.0,
                      "mixToMono" : false
                    },
                      "channelNumber" : "0,1",
                    "effects" : [

                    ],
                    "start" : 17891,
                    "duration" : 391,
                    "mediaStart" : 26108,
                    "mediaDuration" : 391,
                    "scalar" : 1,
                    "metadata" : {
                      "WinSubProjectDisplayName" : "",
                      "clipSpeedAttribute" : false
                    },
                    "animationTracks" : {

                    }
                  },
                  {
                    "id" : 136,
                    "_type" : "AMFile",
                    "src" : 1,
                    "trackNumber" : 1,
                    "attributes" : {
                      "ident" : "Rec 01-11-22 14",
                      "sampleRate" : 44100,
                      "bitDepth" : 16,
                      "gain" : 1.0,
                      "mixToMono" : false
                    },
                      "channelNumber" : "0,1",
                    "effects" : [

                    ],
                    "start" : 18282,
                    "duration" : 297,
                    "mediaStart" : 26591,
                    "mediaDuration" : 297,
                    "scalar" : 1,
                    "metadata" : {
                      "WinSubProjectDisplayName" : "",
                      "clipSpeedAttribute" : false
                    },
                    "animationTracks" : {

                    }
                  },
                  {
                    "id" : 137,
                    "_type" : "AMFile",
                    "src" : 1,
                    "trackNumber" : 1,
                    "attributes" : {
                      "ident" : "Rec 01-11-22 14",
                      "sampleRate" : 44100,
                      "bitDepth" : 16,
                      "gain" : 1.0,
                      "mixToMono" : false
                    },
                      "channelNumber" : "0,1",
                    "effects" : [

                    ],
                    "start" : 18579,
                    "duration" : 1661,
                    "mediaStart" : 27072,
                    "mediaDuration" : 1661,
                    "scalar" : 1,
                    "metadata" : {
                      "WinSubProjectDisplayName" : "",
                      "clipSpeedAttribute" : false
                    },
                    "animationTracks" : {

                    }
                  },
                  {
                    "id" : 138,
                    "_type" : "AMFile",
                    "src" : 1,
                    "trackNumber" : 1,
                    "attributes" : {
                      "ident" : "Rec 01-11-22 14",
                      "sampleRate" : 44100,
                      "bitDepth" : 16,
                      "gain" : 1.0,
                      "mixToMono" : false
                    },
                      "channelNumber" : "0,1",
                    "effects" : [

                    ],
                    "start" : 20240,
                    "duration" : 120,
                    "mediaStart" : 29487,
                    "mediaDuration" : 120,
                    "scalar" : 1,
                    "metadata" : {
                      "WinSubProjectDisplayName" : "",
                      "clipSpeedAttribute" : false
                    },
                    "animationTracks" : {

                    }
                  },
                  {
                    "id" : 139,
                    "_type" : "AMFile",
                    "src" : 1,
                    "trackNumber" : 1,
                    "attributes" : {
                      "ident" : "Rec 01-11-22 14",
                      "sampleRate" : 44100,
                      "bitDepth" : 16,
                      "gain" : 1.0,
                      "mixToMono" : false
                    },
                      "channelNumber" : "0,1",
                    "effects" : [

                    ],
                    "start" : 20360,
                    "duration" : 555,
                    "mediaStart" : 29664,
                    "mediaDuration" : 555,
                    "scalar" : 1,
                    "metadata" : {
                      "WinSubProjectDisplayName" : "",
                      "clipSpeedAttribute" : false
                    },
                    "animationTracks" : {

                    }
                  },
                  {
                    "id" : 140,
                    "_type" : "AMFile",
                    "src" : 1,
                    "trackNumber" : 1,
                    "attributes" : {
                      "ident" : "Rec 01-11-22 14",
                      "sampleRate" : 44100,
                      "bitDepth" : 16,
                      "gain" : 1.0,
                      "mixToMono" : false
                    },
                      "channelNumber" : "0,1",
                    "effects" : [

                    ],
                    "start" : 20915,
                    "duration" : 94,
                    "mediaStart" : 30494,
                    "mediaDuration" : 94,
                    "scalar" : 1,
                    "metadata" : {
                      "WinSubProjectDisplayName" : "",
                      "clipSpeedAttribute" : false
                    },
                    "animationTracks" : {

                    }
                  },
                  {
                    "id" : 141,
                    "_type" : "AMFile",
                    "src" : 2,
                    "trackNumber" : 1,
                    "attributes" : {
                      "ident" : "Rec 01-11-22 15",
                      "sampleRate" : 44100,
                      "bitDepth" : 16,
                      "gain" : 1.0,
                      "mixToMono" : false
                    },
                      "channelNumber" : "0,1",
                    "effects" : [

                    ],
                    "start" : 21009,
                    "duration" : 591,
                    "mediaStart" : 0,
                    "mediaDuration" : 591,
                    "scalar" : 1,
                    "metadata" : {
                      "WinSubProjectDisplayName" : "",
                      "clipSpeedAttribute" : false
                    },
                    "animationTracks" : {

                    }
                  },
                  {
                    "id" : 142,
                    "_type" : "AMFile",
                    "src" : 2,
                    "trackNumber" : 1,
                    "attributes" : {
                      "ident" : "Rec 01-11-22 15",
                      "sampleRate" : 44100,
                      "bitDepth" : 16,
                      "gain" : 1.0,
                      "mixToMono" : false
                    },
                      "channelNumber" : "0,1",
                    "effects" : [

                    ],
                    "start" : 21600,
                    "duration" : 685,
                    "mediaStart" : 977,
                    "mediaDuration" : 685,
                    "scalar" : 1,
                    "metadata" : {
                      "WinSubProjectDisplayName" : "",
                      "clipSpeedAttribute" : false
                    },
                    "animationTracks" : {

                    }
                  },
                  {
                    "id" : 143,
                    "_type" : "AMFile",
                    "src" : 2,
                    "trackNumber" : 1,
                    "attributes" : {
                      "ident" : "Rec 01-11-22 15",
                      "sampleRate" : 44100,
                      "bitDepth" : 16,
                      "gain" : 1.0,
                      "mixToMono" : false
                    },
                      "channelNumber" : "0,1",
                    "effects" : [

                    ],
                    "start" : 22285,
                    "duration" : 372,
                    "mediaStart" : 2955,
                    "mediaDuration" : 372,
                    "scalar" : 1,
                    "metadata" : {
                      "WinSubProjectDisplayName" : "",
                      "clipSpeedAttribute" : false
                    },
                    "animationTracks" : {

                    }
                  },
                  {
                    "id" : 144,
                    "_type" : "AMFile",
                    "src" : 2,
                    "trackNumber" : 1,
                    "attributes" : {
                      "ident" : "Rec 01-11-22 15",
                      "sampleRate" : 44100,
                      "bitDepth" : 16,
                      "gain" : 1.0,
                      "mixToMono" : false
                    },
                      "channelNumber" : "0,1",
                    "effects" : [

                    ],
                    "start" : 22657,
                    "duration" : 609,
                    "mediaStart" : 3421,
                    "mediaDuration" : 609,
                    "scalar" : 1,
                    "metadata" : {
                      "WinSubProjectDisplayName" : "",
                      "clipSpeedAttribute" : false
                    },
                    "animationTracks" : {

                    }
                  },
                  {
                    "id" : 145,
                    "_type" : "AMFile",
                    "src" : 2,
                    "trackNumber" : 1,
                    "attributes" : {
                      "ident" : "Rec 01-11-22 15",
                      "sampleRate" : 44100,
                      "bitDepth" : 16,
                      "gain" : 1.0,
                      "mixToMono" : false
                    },
                      "channelNumber" : "0,1",
                    "effects" : [

                    ],
                    "start" : 23266,
                    "duration" : 553,
                    "mediaStart" : 4364,
                    "mediaDuration" : 553,
                    "scalar" : 1,
                    "metadata" : {
                      "WinSubProjectDisplayName" : "",
                      "clipSpeedAttribute" : false
                    },
                    "animationTracks" : {

                    }
                  },
                  {
                    "id" : 146,
                    "_type" : "AMFile",
                    "src" : 2,
                    "trackNumber" : 1,
                    "attributes" : {
                      "ident" : "Rec 01-11-22 15",
                      "sampleRate" : 44100,
                      "bitDepth" : 16,
                      "gain" : 1.0,
                      "mixToMono" : false
                    },
                      "channelNumber" : "0,1",
                    "effects" : [

                    ],
                    "start" : 23819,
                    "duration" : 1864,
                    "mediaStart" : 4969,
                    "mediaDuration" : 1864,
                    "scalar" : 1,
                    "metadata" : {
                      "WinSubProjectDisplayName" : "",
                      "clipSpeedAttribute" : false
                    },
                    "animationTracks" : {

                    }
                  },
                  {
                    "id" : 147,
                    "_type" : "AMFile",
                    "src" : 2,
                    "trackNumber" : 1,
                    "attributes" : {
                      "ident" : "Rec 01-11-22 15",
                      "sampleRate" : 44100,
                      "bitDepth" : 16,
                      "gain" : 1.0,
                      "mixToMono" : false
                    },
                      "channelNumber" : "0,1",
                    "effects" : [

                    ],
                    "start" : 25683,
                    "duration" : 447,
                    "mediaStart" : 7744,
                    "mediaDuration" : 447,
                    "scalar" : 1,
                    "metadata" : {
                      "WinSubProjectDisplayName" : "",
                      "clipSpeedAttribute" : false
                    },
                    "animationTracks" : {

                    }
                  }
                ]
              },
              {
                "trackIndex" : 2,
                "medias" : [
                ]
              },
              {
                "trackIndex" : 3,
                "medias" : [
                ]
              }
            ]
          }
        }
      ]
    },
    "trackAttributes" : [
      {
        "ident" : "",
        "audioMuted" : false,
        "videoHidden" : false,
        "metadata" : {
          "IsLocked" : "False",
          "WinTrackHeight" : "56"
        }
      },
      {
        "ident" : "",
        "audioMuted" : false,
        "videoHidden" : false,
        "metadata" : {
          "IsLocked" : "False",
          "WinTrackHeight" : "56"
        }
      },
      {
        "ident" : "",
        "audioMuted" : false,
        "videoHidden" : false,
        "metadata" : {
          "IsLocked" : "False",
          "WinTrackHeight" : "56"
        }
      },
      {
        "ident" : "",
        "audioMuted" : false,
        "videoHidden" : false,
        "metadata" : {
          "IsLocked" : "False",
          "WinTrackHeight" : "56"
        }
      }
    ],
    "parameters" : {
      "quiz" : {
        "type" : "string",
        "keyframes" : [
          {
            "time" : 14489,
            "value" : "<Quiz id=\"1043\" name=\"Quiz 2\"><Options feedback=\"1\" graded=\"1\"/><Questions><MultipleChoice id=\"102\" text=\"Default Question Text\" collapsed=\"0\" feedback=\"0\" fb_correct=\"\" fb_correct_action=\"\" fb_correct_jumptime_ms=\"0\" fb_correct_url=\"\" fb_correct_marker=\"\" fb_correct_marker_time=\"0\" fb_wrong=\"\" fb_wrong_action=\"\" fb_wrong_jumptime_ms=\"0\" fb_wrong_url=\"\" fb_wrong_marker=\"\" fb_wrong_marker_time=\"0\"><Answers><Answer id=\"2\" text=\"Default Answer Text\" iscorrect=\"1\"/></Answers></MultipleChoice></Questions></Quiz>",
            "duration" : 0
          }
        ]
      }
    },
    "captionAttributes" : {
      "enabled" : true,
      "fontName" : "Arial",
      "fontSize" : 45,
      "backgroundColor" : [ 0, 0, 0, 191],
      "foregroundColor" : [ 255, 255, 255, 255],
      "lang" : "en",
      "alignment" : 0,
      "defaultFontSize" : true,
      "opacity" : 0.5,
      "backgroundEnabled" : true,
      "backgroundOnlyAroundText" : true
    },
    "backgroundColor" : [ 0, 0, 0, 255]
  },
  "metadata" : {
    "AutoSaveFile" : "C:\\Users\\truon\\AppData\\Local\\TechSmith\\Camtasia Studio\\9.0\\Auto-Saves\\Untitled Project1596e8a.autosave.tscproj",
    "CanvasZoom" : 50,
    "Date" : "2022-01-11 10:56:02 AM",
    "Fit" : 0,
    "IsAutoSave" : "0",
    "Language" : "ENU",
    "ProfileName" : "MP4 only (up to 720p)",
    "ProjectDimensionsChanged" : "1",
    "Title" : "Untitled Project",
    "audioNarrationNotes" : "",
    "calloutStyle" : "Basic",
    "canvasDetached" : "False",
    "canvasPositionHeight" : "0",
    "canvasPositionLeft" : "0",
    "canvasPositionTop" : "0",
    "canvasPositionWidth" : "0"
  }
}
